<svg width="313" height="157" viewBox="0 0 313 157" fill="none" xmlns="http://www.w3.org/2000/svg">
<mask id="path-1-inside-1_208_3" fill="white">
<path d="M1.36817e-05 156.5C1.54784e-05 135.948 4.04802 115.597 11.9129 96.61C19.7777 77.6226 31.3054 60.3701 45.8378 45.8378C60.3702 31.3054 77.6226 19.7777 96.6101 11.9128C115.598 4.04799 135.948 -1.54784e-05 156.5 -1.36817e-05C177.052 -1.1885e-05 197.403 4.04799 216.39 11.9128C235.377 19.7777 252.63 31.3054 267.162 45.8378C281.695 60.3702 293.222 77.6226 301.087 96.61C308.952 115.598 313 135.948 313 156.5L311.078 156.5C311.078 136.201 307.079 116.1 299.311 97.3457C291.543 78.5915 280.157 61.551 265.803 47.1971C251.449 32.8433 234.409 21.4572 215.654 13.6889C196.9 5.92064 176.799 1.92238 156.5 1.92238C136.201 1.92238 116.1 5.92064 97.3457 13.6889C78.5915 21.4571 61.551 32.8432 47.1972 47.1971C32.8433 61.551 21.4572 78.5915 13.6889 97.3457C5.92067 116.1 1.92241 136.201 1.92241 156.5L1.36817e-05 156.5Z"/>
</mask>
<path d="M1.36817e-05 156.5C1.54784e-05 135.948 4.04802 115.597 11.9129 96.61C19.7777 77.6226 31.3054 60.3701 45.8378 45.8378C60.3702 31.3054 77.6226 19.7777 96.6101 11.9128C115.598 4.04799 135.948 -1.54784e-05 156.5 -1.36817e-05C177.052 -1.1885e-05 197.403 4.04799 216.39 11.9128C235.377 19.7777 252.63 31.3054 267.162 45.8378C281.695 60.3702 293.222 77.6226 301.087 96.61C308.952 115.598 313 135.948 313 156.5L311.078 156.5C311.078 136.201 307.079 116.1 299.311 97.3457C291.543 78.5915 280.157 61.551 265.803 47.1971C251.449 32.8433 234.409 21.4572 215.654 13.6889C196.9 5.92064 176.799 1.92238 156.5 1.92238C136.201 1.92238 116.1 5.92064 97.3457 13.6889C78.5915 21.4571 61.551 32.8432 47.1972 47.1971C32.8433 61.551 21.4572 78.5915 13.6889 97.3457C5.92067 116.1 1.92241 136.201 1.92241 156.5L1.36817e-05 156.5Z" stroke="url(#paint0_linear_208_3)" stroke-width="2" stroke-dasharray="8 8" mask="url(#path-1-inside-1_208_3)"/>
<defs>
<linearGradient id="paint0_linear_208_3" x1="13" y1="110.5" x2="274.5" y2="94" gradientUnits="userSpaceOnUse">
<stop stop-color="#4D4AF0"/>
<stop offset="0.843989" stop-color="#34ED73"/>
</linearGradient>
</defs>
</svg>
