<?xml version="1.0" standalone="no"?>
<!DOCTYPE svg PUBLIC "-//W3C//DTD SVG 20010904//EN"
 "http://www.w3.org/TR/2001/REC-SVG-20010904/DTD/svg10.dtd">
<svg version="1.0" xmlns="http://www.w3.org/2000/svg"
 width="512.000000pt" height="512.000000pt" viewBox="0 0 512.000000 512.000000"
 preserveAspectRatio="xMidYMid meet">

<g transform="translate(0.000000,512.000000) scale(0.100000,-0.100000)"
fill="#000000" stroke="none">
<path fill="#45be88" d="M1925 5095 l-25 -24 0 -2511 0 -2511 25 -24 24 -25 611 0 611 0 24
25 25 24 0 2511 0 2511 -25 24 -24 25 -611 0 -611 0 -24 -25z"/>
<path fill="#FF3347" d="M3676 3338 c-14 -20 -16 -194 -16 -1658 l0 -1637 23 -21 23 -22 610
0 c600 0 611 0 632 20 l22 21 0 1643 c0 1579 -1 1644 -18 1659 -17 15 -76 17
-640 17 l-621 0 -15 -22z"/>
<path fill="#45be88" d="M170 1880 c-20 -20 -20 -33 -20 -930 l0 -909 22 -21 c21 -20 32 -20
633 -20 l612 0 21 23 22 23 0 907 c0 894 0 907 -20 927 -20 20 -33 20 -635 20
-602 0 -615 0 -635 -20z"/>
</g>
</svg>
