<svg xmlns="http://www.w3.org/2000/svg" width="502" height="452" viewBox="0 0 502 452" version="1.1">
    <path d="M 2.700 3.250 C 3.743 5.038, 59.649 105.613, 126.935 226.750 C 194.221 347.888, 249.603 447, 250.005 447 C 250.408 447, 267.547 416.737, 288.091 379.750 C 338.999 288.099, 338.173 289.612, 336.616 290.904 C 335.487 291.841, 319.989 265.478, 251.449 146.025 L 167.663 0 84.233 0 L 0.802 0 2.700 3.250"
          stroke="none" fill="#000" fill-rule="evenodd"/>
    <path d="M 169.108 2.250 C 169.756 3.488, 207.410 69.214, 252.784 148.309 C 303.395 236.535, 335.639 291.761, 336.207 291.193 C 337.099 290.301, 498 1.060, 498 0.349 C 498 0.157, 423.734 0, 332.965 0 L 167.930 0 169.108 2.250"
          stroke="none" fill="#fff" fill-rule="evenodd"/>
</svg>