<svg width="18" height="18" viewBox="0 0 18 18" fill="none" xmlns="http://www.w3.org/2000/svg">
    <path fill-rule="evenodd" clip-rule="evenodd"
          d="M10.2605 17.3298C9.58021 17.4612 8.55196 17.4761 7.8508 17.3546C7.67811 17.3248 7.49868 17.1642 7.44974 16.996L6.99496 15.4311C6.94602 15.2629 6.78346 15.0554 6.63186 14.9679L4.98402 14.0167C4.83243 13.9292 4.57199 13.8949 4.40296 13.9402L2.85074 14.3562C2.68171 14.4015 2.45277 14.3295 2.33999 14.1959C1.9063 13.6823 1.41355 12.8267 1.18771 12.2133C1.12724 12.0491 1.17646 11.8134 1.29739 11.6868L2.46458 10.4699C2.58552 10.3436 2.68396 10.0989 2.68396 9.92368V8.02103C2.68396 7.84609 2.58355 7.60337 2.4598 7.47962L1.29627 6.31637C1.17252 6.19262 1.12133 5.9589 1.1818 5.79465C1.2358 5.64812 1.43943 5.21162 1.68411 4.78806C1.93414 4.35521 2.2168 3.95275 2.32368 3.82534C2.43589 3.69118 2.66511 3.61609 2.83527 3.658L4.49577 4.06581C4.66564 4.10743 4.92693 4.07031 5.07852 3.98284L6.72608 3.03137C6.87768 2.9439 7.03771 2.7355 7.08299 2.56646L7.50261 1.00018C7.54789 0.831152 7.7248 0.670277 7.89749 0.641027C8.53171 0.534152 9.50849 0.534996 10.1596 0.651996C10.3317 0.682933 10.5083 0.845215 10.5536 1.01425L10.9696 2.56646C11.0149 2.7355 11.1749 2.9439 11.3262 3.03137L12.9741 3.98284C13.1256 4.07031 13.3861 4.10462 13.5551 4.05934L15.1073 3.64337C15.2764 3.59809 15.5053 3.66981 15.6181 3.8034C16.0703 4.3389 16.5732 5.22287 16.8024 5.86468C16.8612 6.02978 16.8086 6.26406 16.6849 6.38781L15.5928 7.47962C15.469 7.60337 15.3686 7.84609 15.3686 8.02103V9.92368C15.3686 10.0989 15.469 10.3413 15.5928 10.4651L16.7012 11.5735C16.8249 11.6972 16.8781 11.9318 16.8199 12.0969C16.7555 12.2797 16.5386 12.7528 16.274 13.2115C16.0239 13.6443 15.7413 14.0468 15.6344 14.1745C15.5219 14.3084 15.2932 14.3807 15.1242 14.3354L13.6496 13.9402C13.4803 13.8949 13.2201 13.9292 13.0686 14.0167L11.4207 14.9679C11.2691 15.0554 11.1094 15.2638 11.0641 15.4328L10.654 16.9634C10.6087 17.1324 10.4324 17.2967 10.2605 17.3298ZM5.19355 8.99978C5.19355 6.8994 6.89849 5.19418 8.99886 5.19418C11.099 5.19418 12.8042 6.8994 12.8042 8.99978C12.8042 11.0999 11.099 12.8051 8.99886 12.8051C6.89849 12.8051 5.19355 11.0999 5.19355 8.99978Z"
          fill="#000"/>
</svg>
