<svg width="17" height="18" viewBox="0 0 17 18" fill="none" xmlns="http://www.w3.org/2000/svg">
    <g>
        <path d="M13.999 6.50815L1.66037 13.9486C0.933957 14.3845 0 13.8656 0 13.0147V4.71287C0 1.0912 3.91224 -1.17106 7.05657 0.634595L11.8197 3.3742L13.9886 4.61948C14.7046 5.04495 14.715 6.08268 13.999 6.50815Z"
              fill="#000"/>
        <path d="M14.6204 12.5903L10.4176 15.0186L6.22516 17.4365C4.72045 18.2978 3.01857 18.1214 1.78368 17.2497C1.18179 16.8346 1.25443 15.911 1.88745 15.5375L15.077 7.62996C15.6996 7.25638 16.5194 7.60921 16.6336 8.32524C16.893 9.93372 16.2288 11.6667 14.6204 12.5903Z"
              fill="#000"/>
    </g>
</svg>
