<svg width="250" height="212" viewBox="0 0 250 212" fill="none" xmlns="http://www.w3.org/2000/svg">
<rect width="250" height="212" fill="url(#paint0_linear_3228_15)" fill-opacity="0.97"/>
<path d="M168.643 66.7536C154.38 45.0783 123.655 32.1154 100.017 37.8002C89.6714 40.2882 82.398 45.9359 78.6849 53.318L73.3177 62.2637C73.2581 62.3623 73.1982 62.4608 73.1399 62.5601L73.0737 62.6704L73.0743 62.6752C67.4849 72.3202 68.2942 85.2685 76.7001 98.0429C90.9632 119.718 121.688 132.681 145.327 126.996C154.636 124.758 161.455 119.96 165.434 113.643L165.438 113.64L165.503 113.531C165.71 113.198 165.91 112.861 166.101 112.52L171.697 103.068L171.697 103.068C177.906 93.3334 177.327 79.9501 168.643 66.7536V66.7536Z" fill="#2F846A"/>
<path d="M172.056 102.882C181.087 84.6372 167.207 59.3115 141.055 46.3159C114.904 33.3204 86.3825 37.5761 77.3517 55.8214C68.3209 74.0667 82.2003 99.3924 108.352 112.388C134.504 125.383 163.025 121.128 172.056 102.882Z" fill="#C0EDDE"/>
<path d="M172.486 101.094C181.384 83.0291 167.602 58.0009 141.702 45.1922C115.802 32.3836 87.5922 36.6448 78.6934 54.71C69.7947 72.7752 83.5769 97.8034 109.477 110.612C135.377 123.421 163.587 119.159 172.486 101.094Z" fill="#50AF95"/>
<path fill-rule="evenodd" clip-rule="evenodd" d="M134.657 79.9854C134.365 80.0563 132.845 80.4011 129.331 80.9851C126.522 81.4518 124.476 81.709 123.755 81.7962C112.484 83.1949 103.09 82.8636 101.825 80.8043C100.555 78.7372 107.921 75.6611 118.791 73.4431L122.753 80.1098C123.496 80.0378 125.604 79.8084 128.418 79.3445C131.78 78.7903 133.384 78.3886 133.671 78.3139L129.809 71.6928C140.815 70.4118 149.676 70.8312 150.807 72.8345C151.934 74.8304 145.042 77.7935 134.645 79.9849L134.657 79.9854V79.9854ZM129.418 71.0015L125.916 64.9975L141.016 62.6741L135.79 53.4746L93.325 59.6899L99.0825 69.1261L114.786 66.71L118.377 72.7516C106.06 75.2738 97.7907 79.0459 99.4367 81.7137C101.075 84.3682 111.954 84.9813 124.71 83.4071L135.738 101.962L146.341 100.025L135.584 81.5792C147.297 79.0739 154.991 75.455 153.548 72.8863C152.098 70.3052 141.882 69.5748 129.414 70.9996L129.418 71.0015H129.418Z" fill="white"/>
<path d="M74.2436 148.182V154.231H80.1226V158.77H74.2031V167.973C74.2031 170.006 75.3247 170.998 76.9685 170.998C77.7904 170.998 78.7419 170.739 79.5193 170.35L80.9891 174.844C79.4788 175.448 78.2237 175.707 76.6244 175.751C72.0005 175.925 68.976 173.29 68.976 167.973V158.77H65V154.231H68.976V148.745L74.2436 148.182ZM175.599 153.948L175.988 156.41C177.632 153.774 179.835 153.385 181.997 153.385C184.199 153.385 186.317 154.248 187.483 155.414L185.106 159.993C184.025 159.086 183.033 158.608 181.304 158.608C178.539 158.608 175.988 160.078 175.988 164.01V175.245H170.717V153.94L175.599 153.948ZM162.679 162.115C162.335 159.349 160.173 157.965 157.149 157.965C154.298 157.965 151.962 159.349 151.185 162.115H162.679ZM151.1 166.479C151.444 169.115 153.735 171.018 157.452 171.018C159.396 171.018 161.947 170.281 163.157 169.03L166.526 172.358C164.279 174.691 160.606 175.816 157.363 175.816C150.019 175.816 145.65 171.277 145.65 164.451C145.65 157.969 150.059 153.3 156.975 153.3C164.105 153.3 168.558 157.709 167.737 166.479H151.1ZM127.851 145V156.839C129.754 154.377 132.086 153.64 134.507 153.64C140.556 153.64 143.237 157.746 143.237 164.014V175.249H137.965V164.058C137.965 160.167 135.933 158.527 133.123 158.527C130.009 158.527 127.851 161.163 127.851 164.362V175.253H122.579V145.004L127.851 145ZM113.85 147.939V153.989H119.729V158.527H113.809V167.73C113.809 169.763 114.935 170.755 116.575 170.755C117.397 170.755 118.348 170.496 119.126 170.107L120.595 174.601C119.085 175.205 117.83 175.464 116.231 175.508C111.607 175.682 108.582 173.043 108.582 167.73V158.527H104.606V153.989H108.582V148.502L113.85 147.939ZM99.286 162.115C98.9419 159.349 96.7797 157.965 93.7552 157.965C90.9048 157.965 88.5686 159.349 87.7912 162.115H99.286ZM87.7062 166.479C88.0503 169.115 90.342 171.018 94.0589 171.018C96.0024 171.018 98.5532 170.281 99.7638 169.03L103.132 172.358C100.885 174.691 97.213 175.816 93.9698 175.816C86.6211 175.816 82.2564 171.277 82.2564 164.451C82.2564 157.969 86.6656 153.3 93.5771 153.3C100.707 153.3 105.157 157.709 104.339 166.479H87.7062Z" fill="#5B5A5D"/>
<defs>
<linearGradient id="paint0_linear_3228_15" x1="1.5" y1="104" x2="254.5" y2="104" gradientUnits="userSpaceOnUse">
<stop stop-color="#50AF95"/>
<stop offset="1" stop-color="#D1EDED"/>
</linearGradient>
</defs>
</svg>
