<svg width="26" height="18" viewBox="0 0 26 18" fill="none" xmlns="http://www.w3.org/2000/svg">
    <g>
        <path d="M18.5153 7.28978C18.3622 7.36274 18.2327 7.4775 18.142 7.62083C18.0512 7.76416 18.0028 7.93023 18.0023 8.09989V10.8002H10.8014C10.5626 10.8002 10.3337 10.8951 10.1649 11.0639C9.99609 11.2327 9.90125 11.4616 9.90125 11.7003V13.5006C9.90125 13.7393 9.99609 13.9682 10.1649 14.137C10.3337 14.3059 10.5626 14.4007 10.8014 14.4007H18.0023V17.101C18.0025 17.274 18.0526 17.4433 18.1465 17.5885C18.2404 17.7338 18.3741 17.8489 18.5318 17.9202C18.6894 17.9914 18.8642 18.0157 19.0353 17.9901C19.2064 17.9646 19.3665 17.8903 19.4965 17.7761L24.8972 13.0685C24.9932 12.9842 25.0701 12.8803 25.1229 12.7639C25.1756 12.6475 25.203 12.5212 25.2032 12.3934C25.1999 12.2613 25.1676 12.1315 25.1084 12.0132C25.0493 11.895 24.9649 11.7913 24.8611 11.7093L19.4605 7.4158C19.3305 7.3084 19.1731 7.23965 19.006 7.21737C18.8389 7.19509 18.6689 7.22018 18.5153 7.28978ZM6.68785 10.7102C6.84102 10.6373 6.97046 10.5225 7.06123 10.3792C7.15201 10.2358 7.20043 10.0698 7.20091 9.90011V7.19977H14.4018C14.6405 7.19977 14.8695 7.10494 15.0383 6.93613C15.2071 6.76733 15.3019 6.53838 15.3019 6.29966V4.49943C15.3019 4.26071 15.2071 4.03176 15.0383 3.86295C14.8695 3.69415 14.6405 3.59932 14.4018 3.59932H7.20091V0.898976C7.20069 0.725995 7.15063 0.55674 7.05673 0.411468C6.96282 0.266195 6.82904 0.151059 6.67141 0.0798366C6.51377 0.00861441 6.33894 -0.0156761 6.16786 0.00987147C5.99678 0.035419 5.83668 0.109723 5.70672 0.22389L0.306039 4.93149C0.210025 5.01583 0.133074 5.11966 0.0803056 5.23606C0.0275374 5.35247 0.000161837 5.47877 0 5.60657C0.00328428 5.73872 0.0356339 5.86852 0.0947498 5.98675C0.153866 6.10498 0.238297 6.20874 0.342043 6.29066L5.74273 10.5842C5.87266 10.6916 6.03014 10.7604 6.19723 10.7826C6.36432 10.8049 6.53432 10.7798 6.68785 10.7102Z"
              fill="#000"/>
    </g>
</svg>
