<svg width="18" height="18" viewBox="0 0 18 18" fill="none" xmlns="http://www.w3.org/2000/svg">
    <path d="M18 9C18 7.788 17.76 6.624 17.28 5.508C16.8 4.392 16.164 3.432 15.372 2.628C14.58 1.824 13.62 1.188 12.492 0.72C11.364 0.252 10.2 0.012 9 0C7.776 0 6.606 0.24 5.49 0.72C4.374 1.2 3.42 1.836 2.628 2.628C1.836 3.42 1.2 4.38 0.720001 5.508C0.24 6.636 0 7.8 0 9C0 10.224 0.24 11.388 0.720001 12.492C1.2 13.596 1.836 14.556 2.628 15.372C3.42 16.188 4.38 16.83 5.508 17.298C6.636 17.766 7.8 18 9 18C10.2 18 11.364 17.766 12.492 17.298C13.62 16.83 14.58 16.188 15.372 15.372C16.164 14.556 16.8 13.596 17.28 12.492C17.76 11.388 18 10.224 18 9ZM13.5 9C13.5 10.248 13.062 11.31 12.186 12.186C11.31 13.062 10.248 13.5 9 13.5C7.752 13.5 6.69 13.062 5.814 12.186C4.938 11.31 4.5 10.248 4.5 9C4.5 7.752 4.938 6.696 5.814 5.832C6.69 4.968 7.752 4.524 9 4.5C10.248 4.476 11.31 4.92 12.186 5.832C13.062 6.744 13.5 7.8 13.5 9Z"
          fill="#000"/>
</svg>
